<?xml version="1.0" encoding="UTF-8"?>
<svg xmlns="http://www.w3.org/2000/svg" version="1.1" viewBox="0 0 512 509.66">
  <!-- Generator: Adobe Illustrator 29.4.0, SVG Export Plug-In . SVG Version: 2.1.0 Build 152)  -->
  <defs>
    <style>
      .st0 {
        fill-rule: evenodd;
      }

      .st0, .st1 {
        fill: #fff;
      }
    </style>
  </defs>
  <g id="Layer_1" image-rendering="optimizeQuality" shape-rendering="geometricPrecision" text-rendering="geometricPrecision">
    <path class="st0" d="M116.97,2.47h278.06c62.97,0,114.49,51.52,114.49,114.49v275.72c0,62.97-51.52,114.49-114.49,114.49H116.97c-62.97,0-114.49-51.52-114.49-114.49V116.97C2.48,54,54,2.47,116.97,2.47Z"/>
    <path class="st1" d="M109.1,181.51c-.12,8.9,0,17.81,0,26.71.01,2.13,1.28,4.06,3.22,4.92,28.01,13.94,56.04,27.82,84.11,41.65-27.83,13.67-55.56,27.53-83.35,41.26-2.19.7-3.78,2.6-4.08,4.88v26.77c1.85,18.2,15.82,32.82,33.91,35.5,3.51.33,7.02.27,10.53.27h155.85c3.77.16,7.54-.14,11.22-.92,11.14-2.71,20.62-9.97,26.14-20.01,1.78-3.6,3.22-7.36,4.29-11.23,16,8.33,32.34,16.08,48.46,24.18.39.29.86.45,1.34.45,1.25,0,2.26-1.01,2.27-2.27v-27.68c-.14-1.86-1.38-3.47-3.14-4.08l-135.32-67.11c45.2-22.43,90.41-44.88,135.63-67.33,1.63-.71,2.71-2.3,2.75-4.08v-27.63c-.15-1.2-1.25-2.04-2.44-1.89-.24.03-.48.1-.7.21l-49.14,24.36c-1.14-5.34-3.31-10.4-6.39-14.92-6.91-10.03-17.96-16.42-30.1-17.42h-167.13c-19.61.91-35.69,15.92-37.93,35.42h0s0,0,0,0Z"/>
    <path class="st1" d="M140.05,181.69c1.77-3.51,5.41-5.68,9.35-5.55h161.65c5.07,0,9.37,3.72,10.1,8.73.2,2.71.1,5.43,0,8.16l-90.6,44.89c-30.61-15.02-61.03-30.22-91.54-45.34.14-3.63-.63-7.53,1.04-10.9h0ZM139.01,317.1c30.42-15.17,60.87-30.28,91.35-45.32,30.32,14.77,60.52,29.95,90.8,44.89-.2,3.92.76,8.16-1.3,11.77-1.8,3.14-5.14,5.08-8.76,5.08h-161.69s-.28,0-.28,0c-3.77,0-7.24-2.08-9.01-5.41-1.8-3.39-.98-7.35-1.12-11.02h0Z"/>
    <path d="M109.1,181.51c2.22-19.53,18.32-34.58,37.96-35.48h167.19c12.14,1,23.18,7.4,30.1,17.43,3.08,4.51,5.25,9.58,6.39,14.91l49.14-24.36c1.08-.54,2.39-.1,2.93.98.11.22.18.45.21.69v27.72c0,1.85-1.12,3.53-2.84,4.23-45.22,22.43-90.43,44.87-135.63,67.34l135.32,66.95c1.77.61,3,2.22,3.14,4.08v27.68c0,1.25-1.02,2.27-2.27,2.26-.48,0-.96-.16-1.35-.44-16.12-8.16-32.46-15.85-48.46-24.18-1.07,3.87-2.5,7.63-4.28,11.23-5.48,10.08-14.95,17.39-26.1,20.14-3.69.77-7.46,1.08-11.22.92h-155.83c-3.51,0-7.04,0-10.53-.26-18.09-2.7-32.05-17.36-33.87-35.57v-26.77c.3-2.28,1.89-4.18,4.08-4.88,27.79-13.73,55.52-27.59,83.35-41.26-28.04-13.96-56.09-27.87-84.17-41.75-1.95-.86-3.21-2.79-3.22-4.92-.04-8.88-.18-17.79-.04-26.69h0ZM140.07,181.69c-1.67,3.37-.9,7.26-1.04,10.9,30.61,15.12,60.99,30.32,91.54,45.34,30.18-14.96,60.38-29.93,90.6-44.89,0-2.71.12-5.43,0-8.16-.73-5.01-5.03-8.73-10.1-8.73h-161.67c-3.93-.13-7.58,2.04-9.35,5.55h.02ZM139.03,317.1c.14,3.67-.65,7.63,1.12,11.04,1.82,3.42,5.41,5.51,9.28,5.4h161.67s.08,0,.08,0c3.62,0,6.96-1.94,8.75-5.08,2.04-3.57,1.1-7.86,1.3-11.77-30.26-14.94-60.48-30.12-90.8-44.89-30.49,15.06-60.97,30.16-91.43,45.3h.02Z"/>
  </g>
</svg>